# xmcd
# 
# Track frame offsets:
#     182
#     84630
#     139202
#     207702
#     252960
#     284010
# 
# Disc length: 4339
# 
# Revision: 11
# Processed by: cddbd v1.5.2PL0 Copyright (c) Steve Scherf et al.
# Submitted via: BonkEnc v1.0.6
# 
DISCID=6110f106
DTITLE=Rachmaninov - Rachmaninov - Concerto 1-4 - CD2
DYEAR=1972
DGENRE=Classical
TTITLE0=Concerto #3.1
TTITLE1=Concerto #3.2
TTITLE2=Concerto #3.3
TTITLE3=Concerto #4.1
TTITLE4=Concerto #4.2
TTITLE5=Concerto #4.3
EXTD=
EXTT0=
EXTT1=
EXTT2=
EXTT3=
EXTT4=
EXTT5=
PLAYORDER=
